<svg xmlns="http://www.w3.org/2000/svg" viewBox="0 0 118 118" role="img" aria-label="researchmap">
  <defs>
    <linearGradient id="body" x1="12" y1="10" x2="102" y2="108" gradientUnits="userSpaceOnUse">
      <stop offset="0" stop-color="#707487"/>
      <stop offset="0.48" stop-color="#c9ceda"/>
      <stop offset="1" stop-color="#8c93a8"/>
    </linearGradient>
    <linearGradient id="shine" x1="30" y1="18" x2="96" y2="84" gradientUnits="userSpaceOnUse">
      <stop offset="0" stop-color="#ffffff" stop-opacity="0.45"/>
      <stop offset="0.55" stop-color="#ffffff" stop-opacity="0.12"/>
      <stop offset="1" stop-color="#ffffff" stop-opacity="0"/>
    </linearGradient>
    <filter id="textShadow" x="-20%" y="-20%" width="140%" height="140%">
      <feDropShadow dx="0" dy="2" stdDeviation="1.5" flood-color="#4d5263" flood-opacity="0.65"/>
    </filter>
  </defs>
  <path d="M6 10.8C6 3.9 13.7-.2 19.4 3.6l86.8 56.5c5.4 3.5 5.4 11.3 0 14.8l-86.8 56.5C13.7 135.2 6 131.1 6 124.2V10.8Z" transform="scale(0.88) translate(1 -1)" fill="url(#body)"/>
  <path d="M19 9.8c1.6.2 3.1.8 4.6 1.7l78.9 51.4c1.5 1 2.5 2.2 3.1 3.6L19 10.8v99.9c-4.7-1.1-8-5.2-8-10.1V19.9c0-6.2 5.4-10.8 11-10.1Z" transform="scale(0.88) translate(1 -1)" fill="url(#shine)"/>
  <text x="17" y="70" font-family="Arial, Helvetica, sans-serif" font-size="50" font-weight="700" fill="#ffffff" filter="url(#textShadow)">rm</text>
</svg>
